<svg width="16" height="13" viewBox="0 0 16 13" fill="none" xmlns="http://www.w3.org/2000/svg">
<path d="M9.45455 4.50948V3.63675C9.85455 3.46706 10.2636 3.33978 10.6818 3.25494C11.1 3.17009 11.5394 3.12766 12 3.12766C12.3152 3.12766 12.6242 3.15191 12.9273 3.20039C13.2303 3.24888 13.5273 3.30948 13.8182 3.38221V4.18221C13.5273 4.07312 13.2333 3.9913 12.9364 3.93675C12.6394 3.88221 12.3273 3.85494 12 3.85494C11.5394 3.85494 11.097 3.91251 10.6727 4.02766C10.2485 4.14282 9.84242 4.30342 9.45455 4.50948ZM9.45455 8.50948V7.61857C9.85455 7.45494 10.2636 7.33221 10.6818 7.25039C11.1 7.16857 11.5394 7.12766 12 7.12766C12.3152 7.12766 12.6242 7.15191 12.9273 7.20039C13.2303 7.24888 13.5273 7.30948 13.8182 7.38221V8.18221C13.5273 8.07312 13.2333 7.9913 12.9364 7.93675C12.6394 7.88221 12.3273 7.85494 12 7.85494C11.5394 7.85494 11.097 7.90948 10.6727 8.01857C10.2485 8.12766 9.84242 8.2913 9.45455 8.50948ZM9.45455 6.50948V5.63675C9.85455 5.46706 10.2636 5.33978 10.6818 5.25494C11.1 5.17009 11.5394 5.12766 12 5.12766C12.3152 5.12766 12.6242 5.15191 12.9273 5.20039C13.2303 5.24888 13.5273 5.30948 13.8182 5.38221V6.18221C13.5273 6.07312 13.2333 5.9913 12.9364 5.93675C12.6394 5.88221 12.3273 5.85494 12 5.85494C11.5394 5.85494 11.097 5.91251 10.6727 6.02766C10.2485 6.14282 9.84242 6.30342 9.45455 6.50948ZM3.78182 9.4913C4.4311 9.4913 5.06312 9.56706 5.67787 9.71857C6.29262 9.87009 6.89697 10.0974 7.49091 10.4004V2.63675C6.94546 2.27312 6.35382 1.9913 5.71602 1.7913C5.07822 1.5913 4.43349 1.4913 3.78182 1.4913C3.32121 1.4913 2.8697 1.54888 2.42727 1.66403C1.98485 1.77918 1.53939 1.9216 1.09091 2.0913V9.98221C1.46667 9.81251 1.89394 9.68827 2.37273 9.60948C2.85152 9.53069 3.32121 9.4913 3.78182 9.4913ZM8.58182 10.4004C9.18788 10.0974 9.78182 9.87009 10.3636 9.71857C10.9455 9.56706 11.5636 9.4913 12.2182 9.4913C12.6788 9.4913 13.1545 9.52766 13.6455 9.60039C14.1364 9.67312 14.5576 9.77009 14.9091 9.8913V2.0913C14.497 1.88524 14.0617 1.73372 13.6032 1.63675C13.1448 1.53978 12.6831 1.4913 12.2182 1.4913C11.5636 1.4913 10.9303 1.5913 10.3182 1.7913C9.70606 1.9913 9.12727 2.27312 8.58182 2.63675V10.4004ZM8.03636 12.0368C7.41818 11.5761 6.74546 11.2216 6.01818 10.9731C5.29091 10.7246 4.54545 10.6004 3.78182 10.6004C3.33895 10.6004 2.90399 10.6549 2.47695 10.764C2.04989 10.8731 1.62424 11.0065 1.2 11.164C0.92 11.2974 0.65 11.2792 0.39 11.1095C0.13 10.9398 0 10.6974 0 10.3822V1.96403C0 1.78221 0.0424242 1.61554 0.127273 1.46403C0.212121 1.31251 0.339394 1.19433 0.509091 1.10948C1.01818 0.867057 1.54785 0.688269 2.09809 0.573118C2.64832 0.457966 3.20956 0.400391 3.78182 0.400391C4.54545 0.400391 5.28788 0.503421 6.00909 0.709482C6.7303 0.915542 7.40606 1.23069 8.03636 1.65494C8.65455 1.23069 9.31818 0.915542 10.0273 0.709482C10.7364 0.503421 11.4667 0.400391 12.2182 0.400391C12.7863 0.400391 13.3435 0.457966 13.8897 0.573118C14.436 0.688269 14.9636 0.867057 15.4727 1.10948C15.6424 1.19433 15.7727 1.31251 15.8636 1.46403C15.9545 1.61554 16 1.78221 16 1.96403V10.3822C16 10.7203 15.8636 10.9776 15.5909 11.154C15.3182 11.3304 15.0485 11.3337 14.7818 11.164C14.3697 10.9943 13.9501 10.858 13.5231 10.7549C13.096 10.6519 12.6611 10.6004 12.2182 10.6004C11.4545 10.6004 10.7212 10.7277 10.0182 10.9822C9.31515 11.2368 8.65455 11.5883 8.03636 12.0368Z" fill="#2B2B2B"/>
</svg>
