<svg width="16" height="16" viewBox="0 0 16 16" fill="none" xmlns="http://www.w3.org/2000/svg">
<path fill-rule="evenodd" clip-rule="evenodd" d="M8 16C12.4183 16 16 12.4183 16 8C16 3.58172 12.4183 0 8 0C3.58172 0 0 3.58172 0 8C0 12.4183 3.58172 16 8 16ZM7.95593 3.99998C7.50508 3.99998 7.1396 4.36546 7.1396 4.81631C7.1396 5.26715 7.50508 5.63263 7.95593 5.63263C8.40677 5.63263 8.77225 5.26715 8.77225 4.81631C8.77225 4.36546 8.40677 3.99998 7.95593 3.99998ZM6.48654 7.59182H7.46613V10.5306H6.16001V11.8367H10.0784V10.5306H8.77225V6.2857H6.48654V7.59182Z" fill="#1779BA"/>
</svg>
