<svg width="16" height="16" viewBox="0 0 16 16" fill="none" xmlns="http://www.w3.org/2000/svg">
<path d="M7.99999 15.2008C4.03279 15.2008 0.799988 11.968 0.799988 8.00078C0.799988 4.03358 4.03279 0.800781 7.99999 0.800781C11.9672 0.800781 15.2 3.70958 15.2 7.28078C15.2 9.66398 13.2632 11.6008 10.88 11.6008H9.60559C9.40399 11.6008 9.24559 11.7592 9.24559 11.9608C9.24559 12.0472 9.28159 12.1264 9.33919 12.1984C9.63439 12.5368 9.79999 12.9616 9.79999 13.4008C9.79999 14.3944 8.99359 15.2008 7.99999 15.2008ZM7.99999 2.24078C4.82479 2.24078 2.23999 4.82558 2.23999 8.00078C2.23999 11.176 4.82479 13.7608 7.99999 13.7608C8.20159 13.7608 8.35999 13.6024 8.35999 13.4008C8.35999 13.2856 8.30239 13.1992 8.25919 13.1488C7.96399 12.8176 7.80559 12.3928 7.80559 11.9608C7.80559 10.9672 8.61199 10.1608 9.60559 10.1608H10.88C12.4712 10.1608 13.76 8.87198 13.76 7.28078C13.76 4.50158 11.1752 2.24078 7.99999 2.24078Z" fill="#2B2B2B"/>
<path d="M4.03999 8.72078C4.63646 8.72078 5.11999 8.23725 5.11999 7.64078C5.11999 7.04431 4.63646 6.56078 4.03999 6.56078C3.44352 6.56078 2.95999 7.04431 2.95999 7.64078C2.95999 8.23725 3.44352 8.72078 4.03999 8.72078Z" fill="#2B2B2B"/>
<path d="M6.19999 5.84078C6.79645 5.84078 7.27999 5.35725 7.27999 4.76078C7.27999 4.16431 6.79645 3.68078 6.19999 3.68078C5.60352 3.68078 5.11999 4.16431 5.11999 4.76078C5.11999 5.35725 5.60352 5.84078 6.19999 5.84078Z" fill="#2B2B2B"/>
<path d="M9.79999 5.84078C10.3965 5.84078 10.88 5.35725 10.88 4.76078C10.88 4.16431 10.3965 3.68078 9.79999 3.68078C9.20352 3.68078 8.71999 4.16431 8.71999 4.76078C8.71999 5.35725 9.20352 5.84078 9.79999 5.84078Z" fill="#2B2B2B"/>
<path d="M11.96 8.72078C12.5565 8.72078 13.04 8.23725 13.04 7.64078C13.04 7.04431 12.5565 6.56078 11.96 6.56078C11.3635 6.56078 10.88 7.04431 10.88 7.64078C10.88 8.23725 11.3635 8.72078 11.96 8.72078Z" fill="#2B2B2B"/>
</svg>
