<svg width="16" height="16" viewBox="0 0 16 16" fill="none" xmlns="http://www.w3.org/2000/svg">
<path fill-rule="evenodd" clip-rule="evenodd" d="M9.54108 16H6.45954C6.06174 16 5.71756 15.7384 5.63243 15.3712L5.28787 13.864C5.28787 13.864 5.27521 13.8041 5.25387 13.6898C4.92661 13.5398 4.6144 13.3637 4.32005 13.1643C4.20309 13.2054 4.14092 13.2256 4.14092 13.2256L2.6295 13.6823C2.26073 13.794 1.85628 13.6349 1.65726 13.2998L0.116487 10.7005C-0.0824102 10.365 -0.0218945 9.94389 0.262045 9.68848L1.42993 8.64425C1.42993 8.64425 1.47723 8.60331 1.56885 8.52761C1.554 8.35366 1.54643 8.17769 1.54643 8C1.54643 7.82429 1.55384 7.65026 1.56835 7.4782C1.47325 7.39998 1.42409 7.35761 1.42409 7.35761L0.262308 6.31109C-0.0214054 6.05589 -0.0821333 5.63518 0.116327 5.29976L1.6571 2.70053C1.856 2.365 2.2607 2.20549 2.62976 2.31728L4.1422 2.78025C4.1422 2.78025 4.20218 2.79965 4.31514 2.83903C4.61088 2.63833 4.92469 2.46114 5.25372 2.31022C5.27515 2.19541 5.28787 2.1352 5.28787 2.1352L5.63328 0.6296C5.71799 0.262375 6.0618 0.000395514 6.45954 0H9.54108C9.93881 0.000395514 10.2826 0.262375 10.3673 0.6296L10.7161 2.136C10.7161 2.136 10.7288 2.19651 10.7502 2.31189C11.0779 2.46243 11.3904 2.63903 11.685 2.83894C11.7986 2.79936 11.8588 2.77986 11.8588 2.77986L13.3703 2.3184C13.7392 2.20624 14.144 2.36525 14.3432 2.70053L15.884 5.29976C16.0825 5.63544 16.0215 6.05643 15.7373 6.3115L14.5723 7.3589C14.5723 7.3589 14.5244 7.40019 14.4318 7.4765C14.4464 7.64912 14.4539 7.82371 14.4539 8C14.4539 8.17762 14.4463 8.35353 14.4315 8.52742C14.5236 8.60349 14.5711 8.64466 14.5711 8.64466L15.7372 9.6888C16.0213 9.94387 16.0824 10.3649 15.8838 10.7005L14.3431 13.2998C14.1439 13.635 13.739 13.7941 13.3701 13.6819L11.8563 13.2229C11.8563 13.2229 11.7957 13.2032 11.6817 13.1633C11.3886 13.362 11.0777 13.5376 10.7518 13.6874C10.73 13.8058 10.717 13.868 10.717 13.868L10.3673 15.3712C10.2823 15.7381 9.93856 15.9997 9.54108 16ZM8.00012 11.4286C9.94427 11.4286 11.5203 9.89355 11.5203 8C11.5203 6.10645 9.94427 4.57143 8.00012 4.57143C6.05596 4.57143 4.47991 6.10645 4.47991 8C4.47991 9.89355 6.05596 11.4286 8.00012 11.4286Z" fill="#687387"/>
</svg>
